<svg width="130" height="54" viewBox="0 0 130 54" fill="none" xmlns="http://www.w3.org/2000/svg">
<path d="M53 17.1818V22.8636H38.625V17.1818H53ZM41.4091 11.9545H49.25V31.983C49.25 32.286 49.3021 32.5417 49.4062 32.75C49.5104 32.9489 49.6714 33.1004 49.8892 33.2045C50.107 33.2992 50.3864 33.3466 50.7273 33.3466C50.964 33.3466 51.2386 33.3182 51.5511 33.2614C51.8731 33.2045 52.1098 33.1572 52.2614 33.1193L53.3977 38.6307C53.0473 38.7348 52.5455 38.8627 51.892 39.0142C51.2481 39.1657 50.4811 39.2652 49.5909 39.3125C47.7917 39.4072 46.2813 39.2225 45.0597 38.7585C43.8381 38.285 42.9195 37.5417 42.304 36.5284C41.6884 35.5152 41.3902 34.2462 41.4091 32.7216V11.9545ZM66.4766 39.3977C64.1091 39.3977 62.0826 38.929 60.397 37.9915C58.7114 37.0445 57.4188 35.7282 56.5192 34.0426C55.6196 32.3475 55.1697 30.3826 55.1697 28.1477C55.1697 25.9129 55.6196 23.9527 56.5192 22.267C57.4188 20.572 58.7114 19.2557 60.397 18.3182C62.0826 17.3712 64.1091 16.8977 66.4766 16.8977C68.844 16.8977 70.8705 17.3712 72.5561 18.3182C74.2417 19.2557 75.5343 20.572 76.4339 22.267C77.3336 23.9527 77.7834 25.9129 77.7834 28.1477C77.7834 30.3826 77.3336 32.3475 76.4339 34.0426C75.5343 35.7282 74.2417 37.0445 72.5561 37.9915C70.8705 38.929 68.844 39.3977 66.4766 39.3977ZM66.5334 33.6023C67.1963 33.6023 67.7692 33.3797 68.2521 32.9347C68.7351 32.4896 69.1091 31.8551 69.3743 31.0312C69.6394 30.2074 69.772 29.2273 69.772 28.0909C69.772 26.9451 69.6394 25.965 69.3743 25.1506C69.1091 24.3267 68.7351 23.6922 68.2521 23.2472C67.7692 22.8021 67.1963 22.5795 66.5334 22.5795C65.8326 22.5795 65.2313 22.8021 64.7294 23.2472C64.2275 23.6922 63.844 24.3267 63.5788 25.1506C63.3137 25.965 63.1811 26.9451 63.1811 28.0909C63.1811 29.2273 63.3137 30.2074 63.5788 31.0312C63.844 31.8551 64.2275 32.4896 64.7294 32.9347C65.2313 33.3797 65.8326 33.6023 66.5334 33.6023Z" fill="#ADCCD2"/>
<path d="M88.8629 39.2841C87.3099 39.2841 85.88 38.8769 84.5732 38.0625C83.2758 37.2481 82.2341 36.0123 81.4482 34.3551C80.6716 32.6979 80.2834 30.6098 80.2834 28.0909C80.2834 25.4583 80.6906 23.3182 81.505 21.6705C82.3288 20.0227 83.3894 18.8153 84.6868 18.0483C85.9936 17.2812 87.3667 16.8977 88.8061 16.8977C89.8857 16.8977 90.8326 17.0871 91.647 17.4659C92.4614 17.8352 93.1432 18.3324 93.6925 18.9574C94.2417 19.5729 94.6584 20.25 94.9425 20.9886H95.0561V9.90909H102.897V39H95.1129V35.4205H94.9425C94.6394 36.1591 94.2038 36.822 93.6357 37.4091C93.0769 37.9867 92.3951 38.446 91.5902 38.7869C90.7947 39.1184 89.8857 39.2841 88.8629 39.2841ZM91.7607 33.2614C92.4804 33.2614 93.0959 33.053 93.6072 32.6364C94.1281 32.2102 94.5258 31.6136 94.8004 30.8466C95.0845 30.0701 95.2266 29.1515 95.2266 28.0909C95.2266 27.0114 95.0845 26.0881 94.8004 25.321C94.5258 24.5445 94.1281 23.9527 93.6072 23.5455C93.0959 23.1288 92.4804 22.9205 91.7607 22.9205C91.041 22.9205 90.4254 23.1288 89.9141 23.5455C89.4122 23.9527 89.0239 24.5445 88.7493 25.321C88.4841 26.0881 88.3516 27.0114 88.3516 28.0909C88.3516 29.1705 88.4841 30.0985 88.7493 30.875C89.0239 31.642 89.4122 32.2339 89.9141 32.6506C90.4254 33.0578 91.041 33.2614 91.7607 33.2614ZM117.258 39.3977C114.89 39.3977 112.864 38.929 111.178 37.9915C109.493 37.0445 108.2 35.7282 107.3 34.0426C106.401 32.3475 105.951 30.3826 105.951 28.1477C105.951 25.9129 106.401 23.9527 107.3 22.267C108.2 20.572 109.493 19.2557 111.178 18.3182C112.864 17.3712 114.89 16.8977 117.258 16.8977C119.625 16.8977 121.652 17.3712 123.337 18.3182C125.023 19.2557 126.316 20.572 127.215 22.267C128.115 23.9527 128.565 25.9129 128.565 28.1477C128.565 30.3826 128.115 32.3475 127.215 34.0426C126.316 35.7282 125.023 37.0445 123.337 37.9915C121.652 38.929 119.625 39.3977 117.258 39.3977ZM117.315 33.6023C117.978 33.6023 118.55 33.3797 119.033 32.9347C119.516 32.4896 119.89 31.8551 120.156 31.0312C120.421 30.2074 120.553 29.2273 120.553 28.0909C120.553 26.9451 120.421 25.965 120.156 25.1506C119.89 24.3267 119.516 23.6922 119.033 23.2472C118.55 22.8021 117.978 22.5795 117.315 22.5795C116.614 22.5795 116.013 22.8021 115.511 23.2472C115.009 23.6922 114.625 24.3267 114.36 25.1506C114.095 25.965 113.962 26.9451 113.962 28.0909C113.962 29.2273 114.095 30.2074 114.36 31.0312C114.625 31.8551 115.009 32.4896 115.511 32.9347C116.013 33.3797 116.614 33.6023 117.315 33.6023Z" fill="#EEC3F5"/>
<g filter="url(#filter0_d_14_18)">
<g clip-path="url(#clip0_14_18)">
<path d="M15.0214 12.933C18.1471 16.9011 19.8156 21.7944 19.7551 26.8155V28.0141L20.7864 28.6416C22.1188 29.4482 23.1126 30.6993 23.5865 32.1669C23.1704 31.8605 22.7351 31.5803 22.2831 31.3278L19.5331 29.7838L19.039 32.9001C18.9962 33.1755 18.9388 33.4485 18.8671 33.718H11.1614C11.0468 33.3655 10.9537 33.0129 10.8678 32.6463L10.2447 29.8261L7.70956 31.2362C7.28603 31.473 6.87711 31.7344 6.48495 32.0188C6.96812 30.5682 7.94111 29.3242 9.24211 28.4935L10.2232 27.866V26.7521C10.2409 21.7513 11.9296 16.8952 15.0286 12.933H15.0214ZM15.0286 10C14.8679 10.0004 14.7127 10.058 14.5917 10.1622L14.5273 10.2186C10.3977 14.7656 8.10454 20.6454 8.08196 26.745C6.32955 27.8643 5.03238 29.5543 4.41714 31.5197C3.8019 33.485 3.90771 35.6007 4.71607 37.4971C5.56764 35.6455 6.99119 34.1058 8.78378 33.0975C8.96356 33.8642 9.20298 34.6161 9.49993 35.3467C9.53759 35.4871 9.62106 35.6114 9.73751 35.7006C9.85396 35.7898 9.99694 35.8388 10.1445 35.8402H20.0846C20.2851 35.8402 20.4856 35.6498 20.5859 35.3537C20.8757 34.6592 21.0777 33.9322 21.1874 33.1892C22.9835 34.1932 24.4082 35.7342 25.2551 37.5887C26.1123 35.7017 26.245 33.5727 25.6286 31.5967C25.0123 29.6206 23.6887 27.9319 21.9036 26.8437C21.9744 20.7082 19.6934 14.7718 15.5156 10.2186C15.4533 10.1501 15.3772 10.0952 15.2921 10.0576C15.2069 10.0199 15.1147 10.0003 15.0214 10H15.0286Z" fill="#ADCCD2"/>
<path d="M15.0213 26.1596C14.4713 26.1596 13.9335 25.9993 13.4759 25.6988C13.0182 25.3984 12.6612 24.9713 12.4497 24.4714C12.2382 23.9714 12.1818 23.4211 12.2876 22.8896C12.3933 22.3582 12.6565 21.8695 13.044 21.4851C13.4314 21.1007 13.9258 20.8378 14.4648 20.7296C15.0038 20.6214 15.5632 20.6727 16.0726 20.8771C16.582 21.0814 17.0186 21.4297 17.3272 21.8779C17.6359 22.3261 17.8029 22.8543 17.8071 23.3958V23.3958C17.8157 23.7468 17.7539 24.0959 17.6254 24.4234C17.4969 24.7508 17.304 25.0501 17.058 25.3041C16.8119 25.5582 16.5174 25.762 16.1913 25.9039C15.8652 26.0459 15.5139 26.1232 15.1574 26.1314C15.1123 26.1385 15.0664 26.1385 15.0213 26.1314V26.1596Z" fill="#ADCCD2"/>
<path d="M18.8957 37.5959C18.7165 37.5903 18.538 37.6199 18.3706 37.6831C18.2032 37.7463 18.0503 37.8418 17.9209 37.9639C17.7915 38.0861 17.6881 38.2324 17.6169 38.3944C17.5458 38.5564 17.5082 38.7308 17.5063 38.9073V43.0671C17.5063 43.4299 17.6527 43.7778 17.9133 44.0343C18.1738 44.2908 18.5272 44.4349 18.8957 44.4349C19.2641 44.4349 19.6175 44.2908 19.8781 44.0343C20.1386 43.7778 20.285 43.4299 20.285 43.0671V38.9637C20.2907 38.7879 20.2608 38.6127 20.1971 38.4483C20.1333 38.284 20.037 38.1338 19.9137 38.0065C19.7904 37.8792 19.6425 37.7773 19.4788 37.7068C19.3151 37.6363 19.1388 37.5986 18.9601 37.5959H18.8957Z" fill="#EEC3F5"/>
<path d="M11.1613 37.5956C10.9791 37.5861 10.7968 37.6128 10.6252 37.6741C10.4537 37.7354 10.2964 37.83 10.1628 37.9524C10.0291 38.0748 9.92188 38.2223 9.84736 38.3863C9.77284 38.5503 9.73259 38.7274 9.729 38.907V43.0668C9.729 43.4296 9.87538 43.7775 10.1359 44.034C10.3965 44.2905 10.7499 44.4346 11.1183 44.4346C11.4868 44.4346 11.8402 44.2905 12.1007 44.034C12.3613 43.7775 12.5076 43.4296 12.5076 43.0668V38.9634C12.5134 38.7876 12.4835 38.6124 12.4197 38.4481C12.356 38.2837 12.2597 38.1335 12.1363 38.0062C12.013 37.8789 11.8652 37.777 11.7015 37.7065C11.5378 37.636 11.3614 37.5983 11.1828 37.5956H11.1613Z" fill="#EEC3F5"/>
<path d="M14.9211 37.596C14.7424 37.5923 14.5647 37.6232 14.3981 37.6871C14.2316 37.751 14.0795 37.8466 13.9504 37.9683C13.8214 38.0901 13.718 38.2357 13.6462 38.3969C13.5744 38.558 13.5355 38.7315 13.5317 38.9074V44.6395C13.5317 45.0022 13.6781 45.3502 13.9387 45.6067C14.1992 45.8632 14.5526 46.0073 14.9211 46.0073C15.2895 46.0073 15.6429 45.8632 15.9035 45.6067C16.164 45.3502 16.3104 45.0022 16.3104 44.6395V38.9991C16.3161 38.8232 16.2862 38.648 16.2225 38.4837C16.1587 38.3194 16.0624 38.1692 15.9391 38.0418C15.8158 37.9145 15.6679 37.8127 15.5042 37.7422C15.3405 37.6717 15.1642 37.634 14.9855 37.6313L14.9211 37.596Z" fill="#EEC3F5"/>
</g>
</g>
<defs>
<filter id="filter0_d_14_18" x="0" y="10" width="30" height="44" filterUnits="userSpaceOnUse" color-interpolation-filters="sRGB">
<feFlood flood-opacity="0" result="BackgroundImageFix"/>
<feColorMatrix in="SourceAlpha" type="matrix" values="0 0 0 0 0 0 0 0 0 0 0 0 0 0 0 0 0 0 127 0" result="hardAlpha"/>
<feOffset dy="4"/>
<feGaussianBlur stdDeviation="2"/>
<feComposite in2="hardAlpha" operator="out"/>
<feColorMatrix type="matrix" values="0 0 0 0 0 0 0 0 0 0 0 0 0 0 0 0 0 0 0.25 0"/>
<feBlend mode="normal" in2="BackgroundImageFix" result="effect1_dropShadow_14_18"/>
<feBlend mode="normal" in="SourceGraphic" in2="effect1_dropShadow_14_18" result="shape"/>
</filter>
<clipPath id="clip0_14_18">
<rect width="22" height="36" fill="white" transform="translate(4 10)"/>
</clipPath>
</defs>
</svg>
